<?xml version="1.0" standalone="no"?>
<!DOCTYPE svg PUBLIC "-//W3C//DTD SVG 20010904//EN"
 "http://www.w3.org/TR/2001/REC-SVG-20010904/DTD/svg10.dtd">
<svg version="1.0" xmlns="http://www.w3.org/2000/svg"
 width="236.000000pt" height="236.000000pt" viewBox="0 0 236.000000 236.000000"
 preserveAspectRatio="xMidYMid meet">
<metadata>
Created by potrace 1.14, written by Peter Selinger 2001-2017
</metadata>
<g transform="translate(0.000000,236.000000) scale(0.100000,-0.100000)"
fill="#000000" stroke="none">
<path d="M323 2152 c-13 -4 -32 -15 -43 -24 -11 -10 -28 -18 -38 -19 -10 0
-12 -3 -5 -6 10 -3 9 -11 -2 -34 -14 -25 -15 -137 -13 -877 l3 -849 27 -35
c55 -72 16 -69 949 -66 l836 3 37 29 c53 40 66 78 66 191 l0 95 -800 0 -800 0
0 800 0 800 -97 -1 c-54 -1 -108 -4 -120 -7z"/>
<path d="M700 1440 l0 -719 720 -1 720 0 -2 667 -3 668 -23 33 c-13 18 -41 41
-62 52 -37 19 -64 19 -694 19 l-656 0 0 -719z m480 411 c5 -11 46 -109 90
-218 45 -109 87 -211 95 -228 7 -16 21 -49 30 -72 10 -24 20 -43 24 -43 4 0
27 48 50 108 24 59 54 130 66 157 12 28 46 110 75 183 l54 132 113 0 112 0 3
-297 c2 -164 2 -360 0 -435 l-3 -138 -88 0 -89 0 0 276 c0 152 -2 277 -4 280
-2 2 -42 -90 -87 -204 -46 -114 -97 -239 -113 -278 l-30 -71 -60 1 -61 2 -99
244 c-54 135 -103 255 -108 268 -6 13 -10 28 -10 33 0 5 -3 9 -7 9 -5 0 -8
-126 -8 -280 l1 -281 -91 3 -90 3 -1 420 c0 231 2 426 4 433 3 8 35 12 113 12
96 0 109 -2 119 -19z"/>
</g>
</svg>
