<?xml version="1.0" standalone="no"?>
<!DOCTYPE svg PUBLIC "-//W3C//DTD SVG 20010904//EN"
 "http://www.w3.org/TR/2001/REC-SVG-20010904/DTD/svg10.dtd">
<svg version="1.0" xmlns="http://www.w3.org/2000/svg"
 width="512.000000pt" height="512.000000pt" viewBox="0 0 512.000000 512.000000"
 preserveAspectRatio="xMidYMid meet">
<metadata>
Created by potrace 1.14, written by Peter Selinger 2001-2017
</metadata>
<g transform="translate(0.000000,512.000000) scale(0.100000,-0.100000)"
fill="#000000" stroke="none">
<path d="M444 4935 c-101 -31 -177 -88 -231 -172 -68 -106 -64 47 -61 -2239
l3 -2069 33 -70 c56 -118 155 -197 282 -224 41 -9 562 -11 2115 -9 l2060 3 55
25 c30 13 57 28 58 32 2 4 8 8 13 8 26 0 103 90 137 159 l37 75 3 248 4 248
-2001 0 -2001 0 0 2000 0 2001 -232 -2 c-153 -1 -247 -6 -274 -14z"/>
<path d="M1350 3150 l0 -1800 1800 0 1800 0 -2 1648 -3 1647 -32 68 c-44 92
-101 150 -192 195 l-75 37 -1648 3 -1648 2 0 -1800z m1188 1075 c5 -5 28 -57
52 -115 57 -139 70 -170 86 -204 8 -16 14 -32 14 -36 0 -4 10 -29 22 -56 12
-27 23 -53 24 -59 3 -9 97 -241 123 -300 5 -11 19 -45 31 -75 13 -30 29 -68
36 -85 7 -16 41 -102 77 -190 66 -163 80 -197 103 -250 7 -17 17 -43 23 -58 6
-15 16 -27 24 -27 7 0 30 43 51 98 22 53 47 115 57 137 10 22 30 69 44 105 14
36 33 79 41 97 8 17 14 34 14 38 0 3 8 25 19 48 10 23 53 125 94 227 42 102
112 275 158 385 45 110 93 228 106 263 14 34 28 63 31 63 4 1 132 3 284 3 243
2 277 0 280 -14 2 -8 3 -499 3 -1090 l-1 -1075 -222 -3 -222 -2 0 710 c0 410
-4 710 -9 710 -5 0 -11 -6 -14 -12 -26 -67 -211 -528 -218 -543 -8 -19 -40
-98 -189 -470 -39 -99 -77 -193 -85 -210 -7 -16 -21 -52 -31 -80 -36 -101 -26
-96 -197 -93 l-150 3 -47 115 c-26 63 -104 257 -174 430 -70 173 -131 324
-136 335 -8 19 -32 77 -82 200 -12 28 -27 64 -34 82 -8 17 -14 34 -14 38 0 3
-11 30 -24 58 -13 29 -29 70 -36 92 -10 29 -15 35 -19 23 -3 -10 -6 -321 -5
-693 0 -371 -3 -680 -6 -685 -4 -7 -86 -9 -231 -8 l-224 3 -2 1085 c-1 687 2
1087 8 1091 17 10 557 5 567 -6z"/>
</g>
</svg>
